nColumns=19
nRows=58
DataType=double
version=3
OpenSimVersion=4.1
endheader
time	ground_force_1_vx	ground_force_1_vy	ground_force_1_vz	ground_force_1_px	ground_force_1_py	ground_force_1_pz	ground_force_1_mx	ground_force_1_my	ground_force_1_mz	ground_force_2_vx	ground_force_2_vy	ground_force_2_vz	ground_force_2_px	ground_force_2_py	ground_force_2_pz	ground_force_2_mx	ground_force_2_my	ground_force_2_mz
0.1	0	0	0	-0.000523279	0	-0.000346367	0	0	0	0	0	0	-0.000523279	0	-0.000346367	0	0	0
0.108333	-3.48081	17.6782	-1.58255	1.02475	0	-0.188115	-0	2.90232	-0	0	0	0	-0.000523279	0	-0.000346367	0	0	0
0.116667	-9.20011	48.4662	-6.40524	1.11332	0	-0.254679	-0	3.73285	-0	0	0	0	-0.000523279	0	-0.000346367	0	0	0
0.125	-19.025	134.92	-11.075	1.14558	0	-0.278845	-0	4.09355	-0	0	0	0	-0.000523279	0	-0.000346367	0	0	0
0.133333	-32.9984	316.401	-11.8977	1.15764	0	-0.286449	-0	3.677	-0	0	0	0	-0.000523279	0	-0.000346367	0	0	0
0.141667	-52.6005	586.603	-4.601	1.15765	0	-0.289057	-0	2.41208	-0	0	0	0	-0.00052328	0	-0.000346367	0	0	0
0.15	-82.4828	850.51	11.2649	1.15105	0	-0.289901	-0	0.519611	-0	0	0	0	-0.00052328	0	-0.000346368	0	0	0
0.158333	-123.33	1002.01	27.9448	1.14126	0	-0.290239	0	-1.56155	0	0	0	0	-0.00052328	0	-0.000346368	0	0	0
0.166667	-166.062	1054.15	33.5483	1.12832	0	-0.291126	0	-3.36095	0	0	0	0	-0.00052328	0	-0.000346368	0	0	0
0.175	-202.157	1108.08	24.5592	1.11101	0	-0.293026	0	-4.57029	0	0	0	0	-0.00052328	0	-0.000346368	0	0	0
0.183333	-224.498	1222.51	11.5415	1.09051	0	-0.294417	0	-5.11498	0	0	0	0	-0.000523281	0	-0.000346368	0	0	0
0.191667	-228.49	1384.89	7.72163	1.06805	0	-0.293819	0	-5.06924	0	0	0	0	-0.000523281	0	-0.000346368	0	0	0
0.2	-218.953	1553.15	13.6036	1.04444	0	-0.292085	0	-4.51851	0	0	0	0	-0.000523281	0	-0.000346369	0	0	0
0.208333	-196.354	1689.9	17.5694	1.02001	0	-0.290831	0	-3.50388	0	0	0	0	-0.000523282	0	-0.000346369	0	0	0
0.216667	-162.231	1781.28	11.0308	0.994885	0	-0.290667	0	-2.07387	0	0	0	0	-0.000523282	0	-0.000346369	0	0	0
0.225	-124.789	1833.51	-1.95558	0.969533	0	-0.290788	0	-0.353004	0	0	0	0	-0.000523282	0	-0.000346369	0	0	0
0.233333	-89.7895	1857.52	-11.8234	0.944235	0	-0.289954	-0	1.45632	-0	0	0	0	-0.000523283	0	-0.00034637	0	0	0
0.241667	-56.4713	1855.33	-15.8898	0.919109	0	-0.288144	-0	3.12604	-0	0	0	0	-0.000523283	0	-0.00034637	0	0	0
0.25	-20.3877	1824.1	-19.225	0.893626	0	-0.286522	-0	4.44422	-0	0	0	0	-0.000523284	0	-0.00034637	0	0	0
0.258333	18.2036	1765.54	-24.9978	0.867439	0	-0.285857	-0	5.22555	-0	0	0	0	-0.000523284	0	-0.000346371	0	0	0
0.266667	55.7729	1687.14	-29.2577	0.841037	0	-0.285629	-0	5.3275	-0	0	0	0	-0.000523285	0	-0.000346371	0	0	0
0.275	93.3196	1595.08	-26.5299	0.81446	0	-0.28511	-0	4.69639	-0	0	0	0	-0.000523285	0	-0.000346372	0	0	0
0.283333	132.778	1487.12	-16.7887	0.78731	0	-0.284595	-0	3.41247	-0	0	0	0	-0.000523286	0	-0.000346372	0	0	0
0.291667	170.653	1357.17	-4.47554	0.75957	0	-0.28489	-0	1.6884	-0	0	0	0	-0.000523286	0	-0.000346373	0	0	0
0.3	200.822	1204.22	7.05919	0.731211	0	-0.286219	0	-0.182921	0	0	0	0	-0.000523287	0	-0.000346373	0	0	0
0.308333	219.211	1035.78	17.4964	0.702308	0	-0.287967	0	-1.89658	0	0	0	0	-0.000523288	0	-0.000346374	0	0	0
0.316667	224.318	862.019	26.9999	0.673806	0	-0.289166	0	-3.19093	0	0	0	0	-0.000523288	0	-0.000346374	0	0	0
0.325	214.102	687.824	34.0398	0.647424	0	-0.289361	0	-3.88709	0	0	0	0	-0.000523289	0	-0.000346375	0	0	0
0.333333	188.86	517.733	36.3598	0.623802	0	-0.288999	0	-3.91871	0	0	0	0	-0.00052329	0	-0.000346375	0	0	0
0.341667	152.824	362.387	33.3725	0.602774	0	-0.288446	0	-3.34554	0	0	0	0	-0.000523291	0	-0.000346376	0	0	0
0.35	112.367	233.798	26.9553	0.58556	0	-0.286698	0	-2.33673	0	0	0	0	-0.000523291	0	-0.000346376	0	0	0
0.358333	74.1845	138.361	19.9107	0.575314	0	-0.280667	0	-1.12186	0	0	0	0	-0.000523292	0	-0.000346377	0	0	0
0.366667	42.7988	74.9837	14.0175	0.577302	0	-0.266354	-0	0.071515	-0	0	0	0	-0.000523293	0	-0.000346378	0	0	0
0.375	20.9154	37.762	9.63953	0.597026	0	-0.24202	-0	1.06797	-0	0	0	0	-0.000523294	0	-0.000346378	0	0	0
0.383333	8.01074	18.7665	6.58711	0.628046	0	-0.210558	-0	1.76719	-0	0	0	0	-0.000523295	0	-0.000346379	0	0	0
0.391667	1.39946	10.7905	4.68529	0.63668	0	-0.174145	-0	2.14219	-0	0	0	0	-0.000523296	0	-0.00034638	0	0	0
0.4	0	0	0	-0.0005233	0	-0.000346366	0	0	0	0	0	0	-0.000523297	0	-0.00034638	0	0	0
0.408333	0	0	0	-0.000523301	0	-0.000346366	0	0	0	0	0	0	-0.000523298	0	-0.000346381	0	0	0
0.416667	0	0	0	-0.000523302	0	-0.000346366	0	0	0	0	0	0	-0.000523299	0	-0.000346382	0	0	0
0.425	0	0	0	-0.000523303	0	-0.000346366	0	0	0	0	0	0	-0.0005233	0	-0.000346383	0	0	0
0.433333	0	0	0	-0.000523305	0	-0.000346366	0	0	0	0	0	0	-0.000523301	0	-0.000346383	0	0	0
0.441667	0	0	0	-0.000523306	0	-0.000346366	0	0	0	0	0	0	-0.000523302	0	-0.000346384	0	0	0
0.45	0	0	0	-0.000523307	0	-0.000346366	0	0	0	0	0	0	-0.000523303	0	-0.000346385	0	0	0
0.458333	0	0	0	-0.000523308	0	-0.000346366	0	0	0	0	0	0	-0.000523304	0	-0.000346386	0	0	0
0.466667	0	0	0	-0.00052331	0	-0.000346366	0	0	0	0	0	0	-0.000523305	0	-0.000346387	0	0	0
0.475	0	0	0	-0.000523311	0	-0.000346366	0	0	0	-3.66642	15.5589	0.0192696	0.991906	0	-0.229164	0	-0.800761	0
0.483333	0	0	0	-0.000523313	0	-0.000346365	0	0	0	-8.03565	41.2633	-2.3117	1.08208	0	-0.283341	0	-0.790942	0
0.491667	0	0	0	-0.000523314	0	-0.000346365	0	0	0	-16.9353	117.043	-4.6443	1.11596	0	-0.300005	0	-0.548342	0
0.5	0	0	0	-0.000523315	0	-0.000346365	0	0	0	-29.163	288.061	-6.02989	1.12185	0	-0.303721	0	-0.019865	0
0.508333	0	0	0	-0.000523317	0	-0.000346365	0	0	0	-44.257	570.144	-5.59162	1.11858	0	-0.302542	-0	0.812915	-0
0.516667	0	0	0	-0.000523318	0	-0.000346365	0	0	0	-67.7332	882.805	-4.65969	1.11224	0	-0.299493	-0	1.89813	-0
0.525	0	0	0	-0.00052332	0	-0.000346365	0	0	0	-101.163	1083.34	-7.96694	1.10421	0	-0.296663	-0	3.08333	-0
0.533333	0	0	0	-0.000523321	0	-0.000346365	0	0	0	-136.077	1129.79	-18.8257	1.09364	0	-0.29636	-0	4.1191	-0
0.541667	0	0	0	-0.000523323	0	-0.000346365	0	0	0	-169.09	1125.11	-31.0852	1.07861	0	-0.299409	-0	4.73113	-0
0.55	0	0	0	-0.000523325	0	-0.000346365	0	0	0	-201.689	1176.85	-31.469	1.06088	0	-0.302074	-0	4.75443	-0
0.558333	0	0	0	-0.000523326	0	-0.000346365	0	0	0	-224.118	1305.75	-15.4789	1.0422	0	-0.300845	-0	4.24363	-0
0.566667	0	0	0	-0.000523328	0	-0.000346365	0	0	0	-222.042	1466.38	3.62225	1.02067	0	-0.298366	-0	3.44684	-0
0.575	0	0	0	-0.00052333	0	-0.000346365	0	0	0	-192.667	1603.28	8.84294	0.996292	0	-0.298293	-0	2.63645	-0
